<svg xmlns="http://www.w3.org/2000/svg" width="115" height="115" fill="none" viewBox="0 0 115 115"><g clip-path="url(#a)"><path fill="#333" d="M57.536 115c31.757 0 57.5-25.743 57.5-57.5 0-31.756-25.743-57.5-57.5-57.5C25.78 0 .036 25.744.036 57.5c0 31.757 25.744 57.5 57.5 57.5"/><path fill="#fff" fill-rule="evenodd" d="M57.535 47.27c2.125-.147 4.33-.511 6.715-1.369 4.958-1.445 9.96-2.574 15.134-2.877 2.916-.171 6.717-.138 10.133.33 3.873.53 7.239 1.526 8.038 1.769.892.27 2.08.675 2.816 1.04.42.208.646.55.677 1.046a30 30 0 0 1-.131 4.515c-.019.17-.05.38-.14.557-1.036 2.036-1.712 3.402-2.466 5.77-.075.238-1.6 5.704-1.6 5.704-.443 1.755-1.459 3.305-3.001 4.685 0 0-1.54 1.235-3.783 2.084-2.187.829-5.1 1.268-6.637 1.402-3.576.311-7.294.065-9.147-.204-2.918-.425-5.406-1.338-7.65-3.507-.81-.782-1.891-2.091-2.875-3.843-1.346-2.397-2.577-5.359-3.314-6.516-1-1.569-2.11-1.966-2.764-1.975l-.01-.015v.015c-.654.009-1.765.406-2.765 1.975-.737 1.157-1.968 4.12-3.313 6.516-.984 1.752-2.066 3.061-2.875 3.843-2.245 2.169-4.733 3.082-7.65 3.507-1.853.269-5.57.515-9.147.204-1.538-.134-4.45-.573-6.637-1.402-2.244-.85-3.783-2.084-3.783-2.084-1.543-1.38-2.558-2.93-3.002-4.685 0 0-1.524-5.466-1.6-5.704-.754-2.368-1.429-3.734-2.465-5.77-.09-.177-.121-.387-.14-.557a30 30 0 0 1-.131-4.515c.03-.496.256-.838.677-1.047.736-.364 1.924-.77 2.816-1.04.8-.242 4.165-1.239 8.038-1.769 3.416-.467 7.217-.5 10.133-.33 5.173.304 10.175 1.433 15.134 2.878 2.385.858 4.59 1.222 6.715 1.37m41.482 2.433a.981.981 0 1 0 0 1.963.981.981 0 0 0 0-1.963m-82.964 0a.982.982 0 1 0 0 1.963.982.982 0 0 0 0-1.963m35.239 5.45c.177-1.797-.102-3.395-.904-4.532-.915-1.298-2.598-2.055-2.598-2.055-.19-.082-2.236-1.191-5.527-2.06-2.72-.718-5.335-.993-7.08-1.096-2.057-.121-3.819-.109-5.612.032-2.697.21-4.661.77-5.091.9-1.465.444-2.907 1.002-3.704 1.732-.642.59-.902 1.19-1.072 2.648-.232 1.986.18 4.602.474 6.718.505 3.652 1.067 5.21 1.812 6.817.544 1.172 1.507 2.114 2.658 2.824 1.25.773 2.733 1.64 6.866 2.165 3.095.393 7.235.13 9.986-.548 1.843-.368 3.602-1.114 4.995-2.43 2.024-1.913 4.21-5.186 4.797-11.115m-35.24-7.831a.981.981 0 1 0 .002 1.963.981.981 0 0 0-.001-1.963m82.965 0a.981.981 0 1 0 0 1.962.981.981 0 0 0 0-1.962m-35.239 7.83c.587 5.93 2.772 9.203 4.797 11.116 1.392 1.316 3.152 2.061 4.995 2.43 2.751.677 6.89.941 9.985.548 4.134-.525 5.617-1.392 6.867-2.165 1.15-.71 2.114-1.652 2.657-2.824.746-1.607 1.308-3.165 1.813-6.817.293-2.116.705-4.732.474-6.718-.17-1.459-.43-2.059-1.073-2.648-.796-.73-2.238-1.288-3.703-1.732-.43-.13-2.394-.69-5.091-.9-1.794-.14-3.555-.153-5.613-.032-1.744.103-4.359.378-7.08 1.096-3.29.869-5.337 1.978-5.526 2.06 0 0-1.684.757-2.598 2.055-.802 1.137-1.082 2.735-.904 4.532" clip-rule="evenodd"/></g><defs><clipPath id="a"><path fill="#fff" d="M0 0h115v115H0z"/></clipPath></defs></svg>